<?xml version="1.0" standalone="no"?>
<!DOCTYPE svg PUBLIC "-//W3C//DTD SVG 20010904//EN"
 "http://www.w3.org/TR/2001/REC-SVG-20010904/DTD/svg10.dtd">
<svg version="1.0" xmlns="http://www.w3.org/2000/svg"
 width="512.000000pt" height="512.000000pt" viewBox="0 0 512.000000 512.000000"
 preserveAspectRatio="xMidYMid meet">

<g transform="translate(0.000000,512.000000) scale(0.100000,-0.100000)"
fill="#ffba18" stroke="none">
<path d="M954 4718 c-37 -17 -44 -51 -44 -203 l0 -145 -240 0 c-260 0 -291 -5
-304 -52 -3 -13 -6 -901 -6 -1975 l0 -1952 23 -26 22 -26 1477 -6 1476 -6 31
31 31 30 0 256 0 256 246 0 246 0 29 29 29 29 0 1862 0 1861 -25 24 -24 25
-1473 -1 c-993 0 -1480 -4 -1494 -11z m2846 -1903 l0 -1755 -975 0 -974 0 -3
371 -3 371 -24 19 c-22 18 -44 19 -387 19 l-364 0 0 1365 0 1365 1365 0 1365
0 0 -1755z m-2890 153 l0 -1242 398 -399 c218 -219 405 -403 415 -408 12 -7
229 -10 605 -9 323 0 665 -2 760 -6 l172 -7 0 -198 0 -199 -1370 0 -1370 0 0
1855 0 1855 195 0 195 0 0 -1242z m780 -1538 c0 -137 -1 -250 -3 -250 -1 0
-115 113 -252 250 l-250 250 253 0 252 0 0 -250z"/>
<path d="M1573 4093 c-13 -2 -32 -16 -44 -31 -23 -30 -20 -73 8 -104 15 -17
58 -18 875 -18 l859 0 24 25 c44 43 25 108 -34 125 -35 10 -1639 12 -1688 3z"/>
<path d="M1537 3602 c-30 -33 -32 -75 -4 -108 l25 -29 857 0 857 0 24 28 c29
34 31 66 3 101 l-20 26 -863 0 c-821 0 -864 -1 -879 -18z"/>
<path d="M2960 3145 c-147 -47 -223 -227 -156 -370 48 -105 147 -161 265 -153
275 20 344 384 98 510 -53 26 -147 33 -207 13z m166 -189 c28 -28 34 -42 34
-76 0 -34 -6 -48 -34 -76 -29 -29 -41 -34 -79 -34 -36 0 -51 6 -76 29 -27 25
-31 36 -31 81 0 45 4 56 31 81 25 23 40 29 76 29 38 0 50 -5 79 -34z"/>
<path d="M1539 2941 c-18 -14 -24 -29 -24 -61 0 -32 6 -47 24 -61 22 -18 47
-19 481 -19 448 0 458 0 484 21 20 15 26 29 26 57 0 83 9 82 -513 82 -431 0
-456 -1 -478 -19z"/>
<path d="M2935 2436 c-179 -83 -210 -329 -58 -456 76 -62 203 -76 291 -31 200
102 200 385 0 485 -70 35 -161 36 -233 2z m179 -151 c76 -50 49 -184 -41 -201
-45 -8 -75 1 -106 32 -22 22 -27 36 -27 76 0 41 5 54 29 79 24 24 38 29 76 29
25 0 56 -7 69 -15z"/>
<path d="M1543 2255 c-44 -31 -37 -111 13 -134 17 -8 159 -11 465 -11 482 0
487 1 507 58 12 34 -6 85 -33 96 -9 3 -222 6 -474 6 -386 0 -460 -2 -478 -15z"/>
<path d="M2424 1636 c-3 -7 -4 -38 -2 -67 l3 -54 78 -3 77 -3 0 71 0 70 -75 0
c-55 0 -77 -4 -81 -14z"/>
<path d="M2790 1580 l0 -70 80 0 80 0 0 70 0 70 -80 0 -80 0 0 -70z"/>
<path d="M3160 1580 l0 -70 80 0 80 0 0 70 0 70 -80 0 -80 0 0 -70z"/>
<path d="M4490 4719 c-116 -23 -208 -99 -263 -217 l-31 -67 -4 -1488 c-3
-1092 -1 -1517 7 -1600 25 -237 87 -450 193 -662 39 -77 74 -144 79 -150 5 -5
9 -44 9 -87 0 -70 3 -82 25 -103 33 -33 70 -32 106 4 27 28 29 34 29 111 0 79
1 83 63 209 73 146 137 330 166 476 46 228 46 239 46 1815 l0 1495 -33 67
c-72 147 -236 229 -392 197z m161 -175 c39 -20 87 -78 98 -121 6 -21 11 -118
11 -215 l0 -178 -200 0 -200 0 0 178 c0 97 5 194 11 215 11 40 58 100 93 119
54 29 133 30 187 2z m109 -1884 c0 -775 -4 -1235 -11 -1298 -13 -121 -50 -293
-88 -403 -37 -110 -92 -239 -101 -239 -9 0 -64 129 -101 239 -38 110 -75 282
-88 403 -7 63 -11 523 -11 1298 l0 1200 200 0 200 0 0 -1200z"/>
</g>
</svg>
